<svg xmlns="http://www.w3.org/2000/svg" xmlns:xlink="http://www.w3.org/1999/xlink" width="500" zoomAndPan="magnify" viewBox="0 0 375 374.999991" height="500" preserveAspectRatio="xMidYMid meet" version="1.0"><defs><clipPath id="7cd4285479"><path d="M 40.5 0 L 334.5 0 C 356.867188 0 375 18.132812 375 40.5 L 375 334.5 C 375 356.867188 356.867188 375 334.5 375 L 40.5 375 C 29.757812 375 19.457031 370.734375 11.863281 363.136719 C 4.265625 355.542969 0 345.242188 0 334.5 L 0 40.5 C 0 18.132812 18.132812 0 40.5 0 Z M 40.5 0 " clip-rule="nonzero"/></clipPath><clipPath id="91d2461f20"><path d="M 0 0 L 375 0 L 375 375 L 0 375 Z M 0 0 " clip-rule="nonzero"/></clipPath><clipPath id="5cec032a5a"><path d="M 40.5 0 L 334.5 0 C 356.867188 0 375 18.132812 375 40.5 L 375 334.5 C 375 356.867188 356.867188 375 334.5 375 L 40.5 375 C 29.757812 375 19.457031 370.734375 11.863281 363.136719 C 4.265625 355.542969 0 345.242188 0 334.5 L 0 40.5 C 0 18.132812 18.132812 0 40.5 0 Z M 40.5 0 " clip-rule="nonzero"/></clipPath><clipPath id="76d7c9fa6c"><rect x="0" width="375" y="0" height="375"/></clipPath><clipPath id="0e44ec2ccf"><path d="M 47.300781 54 L 327.800781 54 L 327.800781 320.960938 L 47.300781 320.960938 Z M 47.300781 54 " clip-rule="nonzero"/></clipPath></defs><g clip-path="url(#7cd4285479)"><g transform="matrix(1, 0, 0, 1, 0, 0)"><g clip-path="url(#76d7c9fa6c)"><g clip-path="url(#91d2461f20)"><g clip-path="url(#5cec032a5a)"><rect x="-82.5" width="540" fill="#0f1112" height="539.999987" y="-82.499998" fill-opacity="1"/></g></g></g></g></g><g clip-path="url(#0e44ec2ccf)"><path fill="#f6f6f5" d="M 57.3125 312.496094 L 317.6875 312.496094 C 318.527344 312.496094 319.230469 311.792969 319.230469 310.953125 L 319.230469 292.832031 C 319.230469 291.972656 318.527344 291.269531 317.6875 291.269531 L 57.3125 291.269531 C 56.457031 291.269531 55.753906 291.972656 55.753906 292.832031 L 55.753906 310.953125 C 55.753906 311.789062 56.457031 312.496094 57.3125 312.496094 Z M 317.683594 320.953125 L 57.3125 320.953125 C 51.796875 320.953125 47.292969 316.464844 47.292969 310.953125 L 47.292969 292.832031 C 47.292969 287.3125 51.800781 282.8125 57.3125 282.8125 L 64.523438 282.8125 L 64.523438 154.457031 L 57.3125 154.457031 C 51.796875 154.457031 47.292969 149.96875 47.292969 144.457031 L 47.292969 126.335938 C 47.292969 120.816406 51.800781 116.316406 57.3125 116.316406 L 64.714844 116.316406 L 64.714844 92.46875 C 64.714844 90.140625 66.621094 88.238281 68.945312 88.238281 L 98.890625 88.238281 C 101.214844 88.238281 103.121094 90.140625 103.121094 92.46875 L 103.121094 116.316406 L 119.152344 116.316406 L 119.152344 80.402344 C 119.152344 78.070312 121.035156 76.171875 123.382812 76.171875 L 139.125 76.171875 L 139.125 58.253906 C 139.125 55.925781 141.007812 54.023438 143.355469 54.023438 L 164.59375 54.023438 C 166.9375 54.023438 168.824219 55.925781 168.824219 58.253906 L 168.824219 76.171875 L 206.152344 76.171875 L 206.152344 58.253906 C 206.152344 55.925781 208.054688 54.023438 210.382812 54.023438 L 231.640625 54.023438 C 233.96875 54.023438 235.871094 55.925781 235.871094 58.253906 L 235.871094 76.171875 L 251.613281 76.171875 C 253.941406 76.171875 255.84375 78.074219 255.84375 80.402344 L 255.84375 116.300781 L 271.875 116.300781 L 271.875 92.457031 C 271.875 90.128906 273.761719 88.226562 276.105469 88.226562 L 306.03125 88.226562 C 308.375 88.226562 310.261719 90.128906 310.261719 92.457031 L 310.261719 116.300781 L 317.675781 116.300781 C 323.191406 116.300781 327.675781 120.8125 327.675781 126.320312 L 327.675781 144.445312 C 327.675781 149.960938 323.1875 154.445312 317.675781 154.445312 L 310.449219 154.445312 L 310.449219 282.800781 L 317.675781 282.800781 C 323.191406 282.800781 327.675781 287.308594 327.675781 292.816406 L 327.675781 310.941406 C 327.6875 316.464844 323.199219 320.953125 317.683594 320.953125 Z M 72.984375 282.804688 L 301.988281 282.804688 L 301.988281 154.453125 L 72.984375 154.453125 Z M 57.3125 145.992188 C 144.089844 145.992188 230.886719 145.992188 317.6875 145.992188 C 318.527344 145.992188 319.230469 145.289062 319.230469 144.449219 L 319.230469 126.328125 C 319.230469 125.46875 318.527344 124.769531 317.6875 124.769531 C 230.890625 124.769531 144.097656 124.769531 57.3125 124.769531 C 56.457031 124.769531 55.753906 125.46875 55.753906 126.328125 L 55.753906 144.449219 C 55.753906 145.289062 56.457031 145.992188 57.3125 145.992188 Z M 73.171875 116.300781 L 94.652344 116.300781 L 94.652344 96.6875 L 73.171875 96.6875 Z M 127.613281 116.300781 L 247.382812 116.300781 L 247.382812 84.632812 L 127.613281 84.632812 Z M 280.34375 116.300781 L 301.808594 116.300781 L 301.808594 96.6875 L 280.34375 96.6875 Z M 196.835938 163.5 L 196.835938 209.203125 L 217.21875 209.203125 C 220.300781 209.203125 222.765625 212.609375 220.660156 215.886719 L 203.445312 245.707031 L 186.023438 275.890625 C 183.882812 279.609375 178.160156 278.050781 178.160156 273.769531 L 178.144531 273.769531 L 178.144531 228.085938 L 157.777344 228.085938 C 154.679688 228.085938 152.230469 224.660156 154.316406 221.402344 L 188.953125 161.414062 C 191.113281 157.679688 196.816406 159.238281 196.816406 163.503906 L 196.835938 163.503906 Z M 188.367188 213.429688 L 188.367188 179.257812 L 165.070312 219.613281 L 182.375 219.613281 C 184.699219 219.613281 186.601562 221.5 186.601562 223.84375 L 186.601562 258 L 196.144531 241.472656 L 196.144531 241.488281 L 209.898438 217.660156 L 192.597656 217.660156 C 190.269531 217.660156 188.367188 215.757812 188.367188 213.429688 Z M 248.5625 182.667969 C 246.234375 182.667969 244.332031 180.761719 244.332031 178.4375 C 244.332031 176.105469 246.234375 174.207031 248.5625 174.207031 L 257.554688 174.207031 L 257.554688 165.214844 C 257.554688 162.882812 259.4375 160.984375 261.785156 160.984375 C 264.117188 160.984375 266.015625 162.886719 266.015625 165.214844 L 266.015625 174.207031 L 274.988281 174.207031 C 277.332031 174.207031 279.21875 176.109375 279.21875 178.4375 C 279.21875 180.761719 277.332031 182.667969 274.988281 182.667969 L 266.015625 182.667969 L 266.015625 191.640625 C 266.015625 193.984375 264.109375 195.871094 261.785156 195.871094 C 259.4375 195.871094 257.554688 193.984375 257.554688 191.640625 L 257.554688 182.667969 Z M 99.984375 182.667969 C 97.652344 182.667969 95.753906 180.761719 95.753906 178.4375 C 95.753906 176.105469 97.65625 174.207031 99.984375 174.207031 L 126.414062 174.207031 C 128.761719 174.207031 130.644531 176.109375 130.644531 178.4375 C 130.644531 180.761719 128.761719 182.667969 126.414062 182.667969 Z M 147.582031 76.171875 L 160.375 76.171875 L 160.375 62.484375 L 147.582031 62.484375 Z M 214.613281 76.171875 L 227.40625 76.171875 L 227.40625 62.484375 L 214.613281 62.484375 Z M 214.613281 76.171875 " fill-opacity="1" fill-rule="nonzero"/></g></svg>